<svg width="88" height="27" viewBox="0 0 88 27" fill="none" xmlns="http://www.w3.org/2000/svg">
<rect x="0.310791" width="87.6892" height="26.3919" rx="12.9875" fill="#E7E7E7"/>
<path d="M26.5151 6.95029C28.7131 6.95029 30.3031 8.94558 30.3031 12.0944C30.3031 15.2744 28.7131 17.2697 26.5151 17.2697C24.3172 17.2697 22.7272 15.2744 22.7272 12.0944C22.7272 8.94558 24.3172 6.95029 26.5151 6.95029ZM26.5151 8.83647C25.4395 8.83647 24.7225 9.97441 24.7225 12.0944C24.7225 14.2456 25.4395 15.3991 26.5151 15.3991C27.5907 15.3991 28.3234 14.2456 28.3234 12.0944C28.3234 9.97441 27.5907 8.83647 26.5151 8.83647ZM31.8775 5.95264H33.9663V20.3874H31.8775V5.95264ZM33.4987 11.3929H36.0551V13.1076H33.4987V11.3929ZM48.5401 5.95264H50.6133V20.3874H48.5401V5.95264ZM39.3119 7.32441H41.3695V16.2876H39.3119V7.32441ZM39.3119 15.0718H40.5901C42.6945 15.0718 45.0327 14.9159 47.4177 14.4482L47.6516 16.1629C45.173 16.6774 42.788 16.8332 40.5901 16.8332H39.3119V15.0718ZM59.9339 14.0741H62.0071V17.3632H59.9339V14.0741ZM60.9783 6.68529C64.0648 6.68529 66.3718 8.2597 66.3718 10.6603C66.3718 13.0921 64.0648 14.6509 60.9783 14.6509C57.8918 14.6509 55.5848 13.0921 55.5848 10.6603C55.5848 8.2597 57.8918 6.68529 60.9783 6.68529ZM60.9783 8.32205C58.9986 8.32205 57.6268 9.195 57.6268 10.6603C57.6268 12.1568 58.9986 13.0141 60.9783 13.0141C62.958 13.0141 64.3298 12.1568 64.3298 10.6603C64.3298 9.195 62.958 8.32205 60.9783 8.32205ZM54.4624 17.0359H67.5254V18.7194H54.4624V17.0359Z" fill="#3D3D3D"/>
</svg>
