<svg width="88" height="27" viewBox="0 0 88 27" fill="none" xmlns="http://www.w3.org/2000/svg">
<rect x="0.425676" y="0.425676" width="86.8378" height="25.5405" rx="12.5618" stroke="#E7E7E7" stroke-width="0.851351"/>
<path d="M43.2982 9.13264H45.6988V10.8006H43.2982V9.13264ZM43.2982 13.5909H45.6988V15.2744H43.2982V13.5909ZM47.9902 5.95264H49.9699V20.3874H47.9902V5.95264ZM45.1064 6.17088H47.0394V19.7326H45.1064V6.17088ZM40.8041 6.96588C42.7214 6.96588 43.9529 8.94558 43.9529 12.2035C43.9529 15.4771 42.7214 17.4568 40.8041 17.4568C38.9023 17.4568 37.6864 15.4771 37.6864 12.2035C37.6864 8.94558 38.9023 6.96588 40.8041 6.96588ZM40.8041 8.91441C40.0091 8.91441 39.5414 10.0056 39.5414 12.2035C39.5414 14.4171 40.0091 15.4926 40.8041 15.4926C41.6146 15.4926 42.0823 14.4171 42.0823 12.2035C42.0823 10.0056 41.6146 8.91441 40.8041 8.91441Z" fill="#E7E7E7"/>
</svg>
