<svg width="35" height="33" viewBox="0 0 35 33" fill="none" xmlns="http://www.w3.org/2000/svg">
<path d="M9.33521 6.52046V7.52855C9.69376 7.52855 10.0253 7.33811 10.206 7.02841L9.33521 6.52046ZM12.1579 1.68164V0.673552C11.7993 0.673552 11.4678 0.863992 11.2871 1.17369L12.1579 1.68164ZM22.642 1.68164L23.5127 1.17369C23.3321 0.863992 23.0005 0.673552 22.642 0.673552V1.68164ZM25.4646 6.52046L24.5939 7.02841C24.7745 7.33811 25.1061 7.52855 25.4646 7.52855V6.52046ZM2.2786 27.0855V10.5528H0.26242V27.0855H2.2786ZM5.30286 7.52855H9.33521V5.51238H5.30286V7.52855ZM10.206 7.02841L13.0286 2.18959L11.2871 1.17369L8.46445 6.01252L10.206 7.02841ZM12.1579 2.68973H22.642V0.673552H12.1579V2.68973ZM21.7712 2.18959L24.5939 7.02841L26.3354 6.01252L23.5127 1.17369L21.7712 2.18959ZM25.4646 7.52855H29.497V5.51238H25.4646V7.52855ZM32.5212 10.5528V27.0855H34.5374V10.5528H32.5212ZM32.5212 27.0855C32.5212 28.7557 31.1672 30.1097 29.497 30.1097V32.1259C32.2807 32.1259 34.5374 29.8692 34.5374 27.0855H32.5212ZM29.497 7.52855C31.1672 7.52855 32.5212 8.88256 32.5212 10.5528H34.5374C34.5374 7.76906 32.2807 5.51238 29.497 5.51238V7.52855ZM2.2786 10.5528C2.2786 8.88256 3.6326 7.52855 5.30286 7.52855V5.51238C2.5191 5.51238 0.26242 7.76905 0.26242 10.5528H2.2786ZM5.30286 30.1097C3.63261 30.1097 2.2786 28.7557 2.2786 27.0855H0.26242C0.26242 29.8692 2.5191 32.1259 5.30286 32.1259V30.1097ZM22.4404 17.8111C22.4404 20.5948 20.1837 22.8515 17.3999 22.8515V24.8677C21.2972 24.8677 24.4565 21.7083 24.4565 17.8111H22.4404ZM17.3999 22.8515C14.6162 22.8515 12.3595 20.5948 12.3595 17.8111H10.3433C10.3433 21.7083 13.5027 24.8677 17.3999 24.8677V22.8515ZM12.3595 17.8111C12.3595 15.0273 14.6162 12.7706 17.3999 12.7706V10.7544C13.5027 10.7544 10.3433 13.9138 10.3433 17.8111H12.3595ZM17.3999 12.7706C20.1837 12.7706 22.4404 15.0273 22.4404 17.8111H24.4565C24.4565 13.9138 21.2972 10.7544 17.3999 10.7544V12.7706ZM29.497 30.1097H5.30286V32.1259H29.497V30.1097Z" fill="white"/>
</svg>
