<svg width="19" height="19" viewBox="0 0 19 19" fill="none" xmlns="http://www.w3.org/2000/svg">
<path d="M4.45203 18.9074V15.044C3.86115 14.7864 3.34239 14.4419 2.89575 14.0104C2.4485 13.5783 2.06973 13.0896 1.75944 12.5441C1.44855 11.9987 1.21371 11.4154 1.05494 10.7942C0.89555 10.173 0.815857 9.54428 0.815857 8.90795C0.815857 6.51414 1.6643 4.55212 3.36118 3.0219C5.05806 1.49167 7.23976 0.726562 9.90629 0.726562C12.5728 0.726562 14.7545 1.49167 16.4514 3.0219C18.1483 4.55212 18.9967 6.51414 18.9967 8.90795C18.9967 9.54428 18.9173 10.173 18.7586 10.7942C18.5992 11.4154 18.3643 11.9987 18.054 12.5441C17.7432 13.0896 17.3644 13.5783 16.9177 14.0104C16.4705 14.4419 15.9514 14.7864 15.3605 15.044V18.9074H4.45203ZM6.27012 17.0893H7.17916V18.9074H8.99725V17.0893H10.8153V18.9074H12.6334V17.0893H13.5425V13.8622C14.1182 13.7259 14.6297 13.4986 15.0769 13.1805C15.5236 12.8623 15.9023 12.4835 16.2132 12.0442C16.5235 11.6048 16.762 11.12 16.9286 10.5897C17.0953 10.0594 17.1786 9.49883 17.1786 8.90795C17.1786 7.01411 16.5084 5.48025 15.1678 4.30638C13.8267 3.13189 12.0728 2.54465 9.90629 2.54465C7.73974 2.54465 5.98619 3.13189 4.64566 4.30638C3.30451 5.48025 2.63394 7.01411 2.63394 8.90795C2.63394 9.49883 2.71727 10.0594 2.88393 10.5897C3.05059 11.12 3.28906 11.6048 3.59935 12.0442C3.91024 12.4835 4.29295 12.8623 4.74747 13.1805C5.20199 13.4986 5.70954 13.7259 6.27012 13.8622V17.0893ZM8.54273 13.2259H11.2699L9.90629 10.4988L8.54273 13.2259ZM6.72464 10.726C7.22461 10.726 7.65277 10.5479 8.00912 10.1915C8.36486 9.83578 8.54273 9.40793 8.54273 8.90795C8.54273 8.40798 8.36486 7.97982 8.00912 7.62347C7.65277 7.26774 7.22461 7.08987 6.72464 7.08987C6.22466 7.08987 5.79681 7.26774 5.44107 7.62347C5.08472 7.97982 4.90655 8.40798 4.90655 8.90795C4.90655 9.40793 5.08472 9.83578 5.44107 10.1915C5.79681 10.5479 6.22466 10.726 6.72464 10.726ZM13.0879 10.726C13.5879 10.726 14.0161 10.5479 14.3724 10.1915C14.7282 9.83578 14.906 9.40793 14.906 8.90795C14.906 8.40798 14.7282 7.97982 14.3724 7.62347C14.0161 7.26774 13.5879 7.08987 13.0879 7.08987C12.588 7.08987 12.1601 7.26774 11.8044 7.62347C11.448 7.97982 11.2699 8.40798 11.2699 8.90795C11.2699 9.40793 11.448 9.83578 11.8044 10.1915C12.1601 10.5479 12.588 10.726 13.0879 10.726ZM6.27012 17.0893V13.8622C5.70954 13.7259 5.20199 13.4986 4.74747 13.1805C4.29295 12.8623 3.91024 12.4835 3.59935 12.0442C3.28906 11.6048 3.05059 11.12 2.88393 10.5897C2.71727 10.0594 2.63394 9.49883 2.63394 8.90795C2.63394 7.01411 3.30451 5.48025 4.64566 4.30638C5.98619 3.13189 7.73974 2.54465 9.90629 2.54465C12.0728 2.54465 13.8267 3.13189 15.1678 4.30638C16.5084 5.48025 17.1786 7.01411 17.1786 8.90795C17.1786 9.49883 17.0953 10.0594 16.9286 10.5897C16.762 11.12 16.5235 11.6048 16.2132 12.0442C15.9023 12.4835 15.5236 12.8623 15.0769 13.1805C14.6297 13.4986 14.1182 13.7259 13.5425 13.8622V17.0893H7.17916H6.27012Z" fill="url(#paint0_linear_1385_102)"/>
<defs>
<linearGradient id="paint0_linear_1385_102" x1="0.815857" y1="9.62677" x2="18.9967" y2="9.62677" gradientUnits="userSpaceOnUse">
<stop stop-color="#E4DBA9"/>
<stop offset="1" stop-color="#BEA25E"/>
</linearGradient>
</defs>
</svg>
