<svg width="19" height="19" viewBox="0 0 19 19" fill="none" xmlns="http://www.w3.org/2000/svg">
<path d="M4.35529 18.9074V15.044C3.76441 14.7864 3.24565 14.4419 2.79901 14.0104C2.35176 13.5783 1.97299 13.0896 1.6627 12.5441C1.35181 11.9987 1.11697 11.4154 0.958195 10.7942C0.798809 10.173 0.719116 9.54428 0.719116 8.90795C0.719116 6.51414 1.56756 4.55212 3.26444 3.0219C4.96132 1.49167 7.14302 0.726562 9.80955 0.726562C12.4761 0.726562 14.6578 1.49167 16.3547 3.0219C18.0515 4.55212 18.9 6.51414 18.9 8.90795C18.9 9.54428 18.8206 10.173 18.6618 10.7942C18.5024 11.4154 18.2676 11.9987 17.9573 12.5441C17.6464 13.0896 17.2676 13.5783 16.821 14.0104C16.3738 14.4419 15.8547 14.7864 15.2638 15.044V18.9074H4.35529ZM6.17338 17.0893H7.08242V15.2713H8.90051V17.0893H10.7186V15.2713H12.5367V17.0893H13.4457V13.8622C14.0215 13.7259 14.5329 13.4986 14.9802 13.1805C15.4268 12.8623 15.8056 12.4835 16.1165 12.0442C16.4268 11.6048 16.6653 11.12 16.8319 10.5897C16.9986 10.0594 17.0819 9.49883 17.0819 8.90795C17.0819 7.01411 16.4116 5.48025 15.0711 4.30638C13.7299 3.13189 11.9761 2.54465 9.80955 2.54465C7.643 2.54465 5.88945 3.13189 4.54892 4.30638C3.20777 5.48025 2.5372 7.01411 2.5372 8.90795C2.5372 9.49883 2.62053 10.0594 2.78719 10.5897C2.95385 11.12 3.19232 11.6048 3.50261 12.0442C3.8135 12.4835 4.19621 12.8623 4.65073 13.1805C5.10525 13.4986 5.6128 13.7259 6.17338 13.8622V17.0893ZM8.44598 12.5441H11.1731L9.80955 9.817L8.44598 12.5441ZM6.6279 10.726C7.12787 10.726 7.55603 10.5479 7.91238 10.1915C8.26812 9.83578 8.44598 9.40793 8.44598 8.90795C8.44598 8.40798 8.26812 7.97982 7.91238 7.62347C7.55603 7.26774 7.12787 7.08987 6.6279 7.08987C6.12792 7.08987 5.70007 7.26774 5.34433 7.62347C4.98798 7.97982 4.80981 8.40798 4.80981 8.90795C4.80981 9.40793 4.98798 9.83578 5.34433 10.1915C5.70007 10.5479 6.12792 10.726 6.6279 10.726ZM12.9912 10.726C13.4912 10.726 13.9193 10.5479 14.2757 10.1915C14.6314 9.83578 14.8093 9.40793 14.8093 8.90795C14.8093 8.40798 14.6314 7.97982 14.2757 7.62347C13.9193 7.26774 13.4912 7.08987 12.9912 7.08987C12.4912 7.08987 12.0634 7.26774 11.7076 7.62347C11.3513 7.97982 11.1731 8.40798 11.1731 8.90795C11.1731 9.40793 11.3513 9.83578 11.7076 10.1915C12.0634 10.5479 12.4912 10.726 12.9912 10.726Z" fill="url(#paint0_linear_1385_101)"/>
<defs>
<linearGradient id="paint0_linear_1385_101" x1="0.481858" y1="10.2499" x2="19.0956" y2="10.2499" gradientUnits="userSpaceOnUse">
<stop stop-color="#E4DBA9"/>
<stop offset="1" stop-color="#BEA25E"/>
</linearGradient>
</defs>
</svg>
