<svg width="107" height="38" viewBox="0 0 107 38" fill="none" xmlns="http://www.w3.org/2000/svg">
<rect x="1" y="1" width="105" height="36" rx="14" fill="#EBEBEB" stroke="#EBEBEB" stroke-width="2"/>
<path d="M28.4241 11.942H37.3161V13.778H28.4241V11.942ZM28.2261 19.178L27.9921 17.288C30.8901 17.288 34.7241 17.252 37.8921 16.892L38.0001 18.602C34.7601 19.124 31.0701 19.16 28.2261 19.178ZM29.7381 12.86H32.0421V18.386H29.7381V12.86ZM33.7161 12.86H36.0021V18.386H33.7161V12.86ZM38.8101 10.934H41.2041V19.466H38.8101V10.934ZM40.2321 14.192H43.4001V16.136H40.2321V14.192ZM30.1881 20.132H41.2041V24.632H32.6001V26.63H30.2241V22.922H38.8461V21.968H30.1881V20.132ZM30.2241 25.64H41.6901V27.494H30.2241V25.64ZM46.4587 23.822H61.5427V25.766H46.4587V23.822ZM52.7767 20.672H55.1707V24.614H52.7767V20.672ZM48.1507 12.014H59.8507V17.558H50.5627V20.366H48.1867V15.686H57.4747V13.904H48.1507V12.014ZM48.1867 19.412H60.2287V21.338H48.1867V19.412ZM64.7993 20.258H79.9013V22.184H64.7993V20.258ZM71.0993 21.5H73.4753V27.62H71.0993V21.5ZM72.3053 11.492C75.8693 11.492 78.3353 12.968 78.3353 15.254C78.3353 17.522 75.8693 18.98 72.3053 18.98C68.7593 18.98 66.2933 17.522 66.2933 15.254C66.2933 12.968 68.7593 11.492 72.3053 11.492ZM72.3053 13.4C70.1273 13.4 68.7413 14.048 68.7413 15.254C68.7413 16.442 70.1273 17.09 72.3053 17.09C74.5013 17.09 75.8693 16.442 75.8693 15.254C75.8693 14.048 74.5013 13.4 72.3053 13.4Z" fill="black"/>
</svg>
