<svg width="103" height="34" viewBox="0 0 103 34" fill="none" xmlns="http://www.w3.org/2000/svg">
<rect x="1.18672" y="1.18672" width="100.627" height="31.3427" rx="9.49375" fill="#4D4D4D" stroke="#4D4D4D" stroke-width="2.37344"/>
<path d="M27.8935 11.0244H36.1008V12.7191H27.8935V11.0244ZM27.7107 17.7033L27.4947 15.9588C30.1696 15.9588 33.7084 15.9256 36.6325 15.5933L36.7321 17.1716C33.7416 17.6534 30.3357 17.6867 27.7107 17.7033ZM29.1063 11.8717H31.2329V16.9723H29.1063V11.8717ZM32.778 11.8717H34.888V16.9723H32.778V11.8717ZM37.4798 10.094H39.6895V17.9691H37.4798V10.094ZM38.7923 13.1012H41.7164V14.8955H38.7923V13.1012ZM29.5216 18.5838H39.6895V22.7373H31.7479V24.5815H29.5549V21.159H37.513V20.2785H29.5216V18.5838ZM29.5549 23.6677H40.138V25.379H29.5549V23.6677ZM44.5395 21.9897H58.462V23.784H44.5395V21.9897ZM50.371 19.0822H52.5807V22.7207H50.371V19.0822ZM46.1012 11.0909H56.9003V16.208H48.3275V18.7998H46.1344V14.4801H54.7073V12.8354H46.1012V11.0909ZM46.1344 17.9193H57.2492V19.697H46.1344V17.9193ZM72.0344 10.1106H74.2607V19.1155H72.0344V10.1106ZM69.0439 19.4145C72.2836 19.4145 74.3272 20.5443 74.3272 22.4549C74.3272 24.3655 72.2836 25.4787 69.0439 25.4787C65.8042 25.4787 63.7939 24.3655 63.7939 22.4549C63.7939 20.5443 65.8042 19.4145 69.0439 19.4145ZM69.0439 21.1424C67.0502 21.1424 66.0035 21.5577 66.0035 22.4549C66.0035 23.3354 67.0502 23.784 69.0439 23.784C71.0542 23.784 72.1175 23.3354 72.1175 22.4549C72.1175 21.5577 71.0542 21.1424 69.0439 21.1424ZM65.8872 10.9746C68.2797 10.9746 70.0574 12.5031 70.0574 14.6463C70.0574 16.8061 68.2797 18.3346 65.8872 18.3346C63.4948 18.3346 61.7005 16.8061 61.7005 14.6463C61.7005 12.5031 63.4948 10.9746 65.8872 10.9746ZM65.8872 12.8021C64.7242 12.8021 63.8603 13.4833 63.8603 14.6463C63.8603 15.8259 64.7242 16.5071 65.8872 16.5071C67.0502 16.5071 67.8975 15.8259 67.8975 14.6463C67.8975 13.4833 67.0502 12.8021 65.8872 12.8021Z" fill="#F0F0F0"/>
</svg>
