<svg width="107" height="38" viewBox="0 0 107 38" fill="none" xmlns="http://www.w3.org/2000/svg">
<rect x="1" y="1" width="105" height="36" rx="14" stroke="#EBEBEB" stroke-width="2"/>
<path d="M28.4241 11.942H37.3161V13.778H28.4241V11.942ZM28.2261 19.178L27.9921 17.288C30.8901 17.288 34.7241 17.252 37.8921 16.892L38.0001 18.602C34.7601 19.124 31.0701 19.16 28.2261 19.178ZM29.7381 12.86H32.0421V18.386H29.7381V12.86ZM33.7161 12.86H36.0021V18.386H33.7161V12.86ZM38.8101 10.934H41.2041V19.466H38.8101V10.934ZM40.2321 14.192H43.4001V16.136H40.2321V14.192ZM30.1881 20.132H41.2041V24.632H32.6001V26.63H30.2241V22.922H38.8461V21.968H30.1881V20.132ZM30.2241 25.64H41.6901V27.494H30.2241V25.64ZM46.4587 23.822H61.5427V25.766H46.4587V23.822ZM52.7767 20.672H55.1707V24.614H52.7767V20.672ZM48.1507 12.014H59.8507V17.558H50.5627V20.366H48.1867V15.686H57.4747V13.904H48.1507V12.014ZM48.1867 19.412H60.2287V21.338H48.1867V19.412ZM76.2473 10.952H78.6593V20.708H76.2473V10.952ZM73.0073 21.032C76.5173 21.032 78.7313 22.256 78.7313 24.326C78.7313 26.396 76.5173 27.602 73.0073 27.602C69.4973 27.602 67.3193 26.396 67.3193 24.326C67.3193 22.256 69.4973 21.032 73.0073 21.032ZM73.0073 22.904C70.8473 22.904 69.7133 23.354 69.7133 24.326C69.7133 25.28 70.8473 25.766 73.0073 25.766C75.1853 25.766 76.3373 25.28 76.3373 24.326C76.3373 23.354 75.1853 22.904 73.0073 22.904ZM69.5873 11.888C72.1793 11.888 74.1053 13.544 74.1053 15.866C74.1053 18.206 72.1793 19.862 69.5873 19.862C66.9953 19.862 65.0513 18.206 65.0513 15.866C65.0513 13.544 66.9953 11.888 69.5873 11.888ZM69.5873 13.868C68.3273 13.868 67.3913 14.606 67.3913 15.866C67.3913 17.144 68.3273 17.882 69.5873 17.882C70.8473 17.882 71.7653 17.144 71.7653 15.866C71.7653 14.606 70.8473 13.868 69.5873 13.868Z" fill="#EBEBEB"/>
</svg>
