<svg width="30" height="30" viewBox="0 0 30 30" fill="none" xmlns="http://www.w3.org/2000/svg">
<path d="M20.4583 15.7917L14.2083 9.5L18.8333 4.91667L17.625 3.70833L9.66667 11.6667C9.33333 12 8.94444 12.1667 8.5 12.1667C8.05556 12.1667 7.66667 12 7.33333 11.6667C7 11.3333 6.83333 10.9375 6.83333 10.4792C6.83333 10.0208 7 9.625 7.33333 9.29167L15.25 1.375C15.9167 0.708333 16.7014 0.375 17.6042 0.375C18.5069 0.375 19.2917 0.708333 19.9583 1.375L21.1667 2.58333L23.25 0.5C23.5833 0.166667 23.9792 0 24.4375 0C24.8958 0 25.2917 0.166667 25.625 0.5L29.5 4.375C29.8333 4.70833 30 5.10417 30 5.5625C30 6.02083 29.8333 6.41667 29.5 6.75L20.4583 15.7917ZM1.66667 30C1.19444 30 0.798611 29.8403 0.479167 29.5208C0.159722 29.2014 0 28.8056 0 28.3333V25.125C0 24.6806 0.0833333 24.2569 0.25 23.8542C0.416667 23.4514 0.652778 23.0972 0.958333 22.7917L11.8333 11.875L18.125 18.125L7.20833 29.0417C6.90278 29.3472 6.54861 29.5833 6.14583 29.75C5.74306 29.9167 5.31944 30 4.875 30H1.66667Z" fill="#DFD39F"/>
</svg>
