<svg xmlns="http://www.w3.org/2000/svg" width="25" height="25" viewBox="0 0 25 25" fill="none">
  <path fill-rule="evenodd" clip-rule="evenodd" d="M18.0105 0.313814C17.7974 0.112882 17.5083 0 17.207 0C16.9056 0 16.6165 0.112882 16.4034 0.313814L2.47558 13.4458C2.33281 13.5804 2.23066 13.7484 2.17963 13.9326L0.664479 19.4018C0.562525 19.7698 0.67516 20.1612 0.960424 20.4302C1.24569 20.6992 1.66081 20.8054 2.05114 20.7092L7.85179 19.2807C8.04714 19.2326 8.22536 19.1362 8.36813 19.0016L22.296 5.86965C22.7398 5.45123 22.7398 4.77284 22.296 4.35442L18.0105 0.313814ZM4.30066 14.7555L17.207 2.58666L19.8854 5.11204L6.97909 17.2808L3.35369 18.1737L4.30066 14.7555Z" fill="#ECECEC"/>
  <path d="M1.13636 22.8571C0.508767 22.8571 0 23.3368 0 23.9286C0 24.5203 0.508767 25 1.13636 25H23.8636C24.4912 25 25 24.5203 25 23.9286C25 23.3368 24.4912 22.8571 23.8636 22.8571H1.13636Z" fill="#ECECEC"/>
</svg>