<svg width="20" height="20" viewBox="0 0 20 20" fill="none" xmlns="http://www.w3.org/2000/svg">
<path d="M12.9353 10.8926H11.3445V12.4834H12.9353V10.8926Z" fill="url(#paint0_linear_1385_93)"/>
<path d="M12.9353 8.24121H11.3445V9.83204H12.9353V8.24121Z" fill="url(#paint1_linear_1385_93)"/>
<path d="M17.7077 0.817383H2.85999C1.69339 0.817383 0.738892 1.77188 0.738892 2.93848V17.7862C0.738892 18.9528 1.69339 19.9073 2.85999 19.9073H17.7077C18.8743 19.9073 19.8288 18.9528 19.8288 17.7862V2.93848C19.8288 1.77188 18.8743 0.817383 17.7077 0.817383ZM8.16274 13.544H6.57192V8.77151H4.98109V7.18069H8.16274V13.544ZM14.526 12.4834C14.526 13.0667 14.0488 13.544 13.4655 13.544H10.8141C10.2308 13.544 9.75357 13.0667 9.75357 12.4834V8.24124C9.75357 7.65793 10.2308 7.18069 10.8141 7.18069H13.4655C14.0488 7.18069 14.526 7.65793 14.526 8.24124V12.4834Z" fill="url(#paint2_linear_1385_93)"/>
<defs>
<linearGradient id="paint0_linear_1385_93" x1="12.1399" y1="10.8926" x2="12.1399" y2="12.4834" gradientUnits="userSpaceOnUse">
<stop stop-color="#E2D8A6"/>
<stop offset="1" stop-color="#C1A664"/>
</linearGradient>
<linearGradient id="paint1_linear_1385_93" x1="12.1399" y1="8.24121" x2="12.1399" y2="9.83204" gradientUnits="userSpaceOnUse">
<stop stop-color="#E2D8A6"/>
<stop offset="1" stop-color="#C1A664"/>
</linearGradient>
<linearGradient id="paint2_linear_1385_93" x1="0.738892" y1="10.8169" x2="19.8288" y2="10.8169" gradientUnits="userSpaceOnUse">
<stop stop-color="#E2D8A6"/>
<stop offset="1" stop-color="#C1A664"/>
</linearGradient>
</defs>
</svg>
